<svg width="221" height="49" viewBox="0 0 221 49" fill="none" xmlns="http://www.w3.org/2000/svg">
<g clip-path="url(#clip0_16218_291)">
<path d="M22.1203 0.107094C35.5386 -1.14494 47.4281 8.72552 48.6663 22.1451C49.9047 35.5652 40.0222 47.4439 26.6013 48.6684C13.1999 49.8917 1.34124 40.0264 0.104731 26.6259C-1.13165 13.2258 8.72132 1.35717 22.1203 0.107094ZM26.9859 46.0877C38.965 44.6493 47.5077 33.7682 46.0621 21.7905C44.6167 9.81232 33.7308 1.27645 21.7535 2.72957C9.78688 4.18125 1.26039 15.0553 2.70451 27.0223C4.14876 38.991 15.0173 47.5235 26.9859 46.0877Z" fill="white"/>
<path d="M33.9293 11.6974L36.7362 11.6782C36.7907 19.7791 36.7946 27.8804 36.7483 35.9813L33.846 36.0178L33.8417 20.7968L33.8284 16.6287C32.2073 19.7053 30.3667 22.6629 28.6133 25.6648C27.5018 27.5675 26.4695 29.7505 25.0941 31.4614C24.766 31.5814 24.4102 31.5905 24.0684 31.5122C23.9566 31.4862 23.7226 31.3988 23.6378 31.331C22.8959 30.7389 15.9198 18.4841 14.8057 16.6257C15.0917 18.8294 14.912 21.234 14.9108 23.4586L14.9024 35.9578L11.9346 35.9682C12.0265 27.8804 11.8814 19.7869 11.959 11.6973L15.1907 11.7141C16.6278 14.2835 18.1693 16.7991 19.6596 19.3383C21.2432 22.0367 22.7853 24.7676 24.4678 27.4058C26.1795 24.2799 28.0936 21.2503 29.9336 18.1968C31.2369 16.0342 32.469 13.7566 33.9293 11.6974Z" fill="white"/>
<path d="M182.536 17.4694C183.109 17.4309 183.697 17.4158 184.271 17.4259C186.411 17.4641 188.596 18.6083 190.061 20.1252C191.886 22.0153 192.734 24.6515 192.673 27.2518C192.611 29.8977 191.619 32.4133 189.672 34.2285C187.946 35.8364 185.734 36.6971 183.368 36.6084C180.66 36.5067 178.864 35.3657 177.047 33.4265C176.977 34.5363 176.998 35.6591 176.987 36.7715C176.999 38.9805 176.997 41.1896 176.978 43.4C175.948 43.5017 174.91 43.4926 173.881 43.3713C174.049 39.9508 173.901 36.448 173.902 33.0184C173.902 27.9169 173.983 22.8017 173.868 17.7019L176.933 17.6899C176.873 18.8279 176.887 19.9776 176.87 21.1176C178.53 19.0457 179.915 18.0468 182.536 17.4694ZM183.864 33.8712C185.769 33.5139 187.245 32.7367 188.363 31.0922C189.457 29.4557 189.849 27.4487 189.452 25.5213C189.11 23.8036 188.093 22.1802 186.597 21.2415C185.42 20.5026 184.145 20.2996 182.785 20.338C180.897 20.695 179.366 21.3675 178.234 23.0136C177.167 24.5641 176.708 26.7719 177.068 28.6158C177.41 30.3868 178.46 31.9412 179.976 32.9166C181.185 33.6769 182.462 33.896 183.864 33.8712Z" fill="white"/>
<path d="M125.351 9.7832C125.851 10.2965 126.006 11.6509 126.303 12.3762C123.087 13.7259 118.425 13.4484 115.839 15.9186C114.293 17.3963 113.924 19.4395 113.891 21.476C115.275 19.767 116.791 18.3822 119.06 18.003C121.353 17.6196 123.782 18.0631 125.663 19.4625C127.683 20.9662 128.807 23.1461 129.145 25.6152C129.532 28.4528 128.825 31.1288 127.084 33.3952C125.823 34.7945 124.356 35.8286 122.508 36.2811C120.169 36.8549 117.498 36.5576 115.436 35.2783C113.085 33.8177 111.731 31.4078 111.145 28.7567C110.268 24.7949 110.44 18.8741 112.724 15.3576C114.737 12.2553 117.778 11.6411 121.157 10.8375C122.56 10.5038 123.944 10.0932 125.351 9.7832ZM120.004 33.8882C121.996 33.5934 123.477 33.1161 124.715 31.4052C125.929 29.7282 126.321 27.6104 125.944 25.5943C125.641 23.9674 124.784 22.4793 123.387 21.5586C122.532 20.9931 121.539 20.669 120.514 20.6205C118.576 20.8371 116.983 21.2385 115.693 22.8366C114.483 24.3372 113.965 26.3637 114.233 28.265C114.476 29.9994 115.425 31.6686 116.849 32.7028C117.812 33.4017 118.846 33.7082 120.004 33.8882Z" fill="white"/>
<path d="M81.7789 11.0177C82.911 10.9041 84.0888 10.9585 85.2274 10.9505C85.0737 19.286 85.2571 27.6458 85.2092 35.9853L82.2074 35.9553L82.2121 21.2097C82.2039 19.5203 82.1687 17.8274 82.2722 16.1403C79.5058 21.2496 77.0098 26.583 73.9798 31.5371L72.0293 31.5267C69.0449 26.6338 66.5611 21.3615 63.8014 16.3337C63.9093 18.6394 63.8363 20.9807 63.8379 23.29L63.8445 35.9866C62.8438 35.9605 61.847 36.0257 60.8449 35.9788L60.8463 20.7899C60.8484 17.525 60.7845 14.2395 60.9634 10.9789L64.3033 10.9808C65.2526 12.6085 66.0595 14.3527 66.922 16.0295C68.9229 19.9191 70.9035 23.851 73.0621 27.6549C76.2347 22.2756 78.746 16.4814 81.7789 11.0177Z" fill="white"/>
<path d="M97.2179 17.4756C97.6761 17.4511 98.1346 17.4337 98.5932 17.4235C100.996 17.3842 103.391 18.0398 105.124 19.7813C107.441 22.1109 107.672 25.0467 107.672 28.1491C102.67 28.213 97.6605 28.1452 92.657 28.1673C92.8112 28.9928 92.9666 29.7831 93.3593 30.5368C94.1414 32.0443 95.4987 33.1723 97.1236 33.6653C99.0687 34.2547 101.025 33.9091 102.775 32.9441C103.362 32.5451 103.898 32.0782 104.445 31.627C105.23 32.0756 106.025 32.4499 106.855 32.8085C105.62 34.4738 104.029 35.6879 102.015 36.2395C99.4358 36.945 96.2927 36.6685 93.9698 35.3019C91.933 34.1008 90.4716 32.1238 89.9214 29.8248C89.2352 27.0602 89.6185 24.0363 91.1186 21.6046C92.5645 19.2607 94.5935 18.1024 97.2179 17.4756ZM92.6891 25.8122C95.1669 25.7926 97.6449 25.7848 100.123 25.7913L104.755 25.7939C104.303 23.8931 103.85 22.1311 102.081 21.0183C100.787 20.2041 99.218 20.08 97.7285 20.2042C96.12 20.5756 94.7642 21.3077 93.8463 22.7253C93.2248 23.6853 92.9492 24.7168 92.6891 25.8122Z" fill="white"/>
<path d="M159.449 17.47C159.899 17.4476 160.348 17.4326 160.798 17.425C163.195 17.399 165.59 18.1102 167.301 19.859C169.552 22.1611 169.759 25.0988 169.749 28.1372C164.767 28.2129 159.774 28.1529 154.79 28.1646C154.857 29.0735 155.016 29.856 155.441 30.6736C156.226 32.1876 157.529 33.1892 159.155 33.6652C161.33 34.3041 163.31 33.8321 165.232 32.7653C165.701 32.4419 166.118 32.0468 166.545 31.6686C167.335 32.0938 168.136 32.438 168.968 32.7693C167.665 34.4815 166.044 35.723 163.939 36.2563C161.322 36.9201 158.318 36.6658 155.982 35.2561C153.909 34.0042 152.487 31.9412 151.942 29.5912C151.32 26.9075 151.754 23.8208 153.254 21.4941C154.754 19.1679 156.805 18.0421 159.449 17.47ZM154.763 25.8056C157.135 25.799 159.509 25.7664 161.882 25.7912L166.909 25.7886C166.387 23.8342 165.841 21.93 163.95 20.8549C162.779 20.1884 161.352 20.0749 160.03 20.2085C158.461 20.4682 157.135 21.0584 156.161 22.3699C155.389 23.4086 155.06 24.5693 154.763 25.8056Z" fill="white"/>
<path d="M211.185 17.7333C214.22 17.591 217.299 17.6942 220.339 17.7038C220.183 23.7796 220.322 29.8963 220.319 35.9772L217.193 35.9432L217.191 29.7007C215.697 29.6916 213.731 29.3994 212.307 29.7385C211.862 29.8441 211.783 30.0684 211.533 30.414C210.479 32.2853 209.305 34.0915 208.246 35.9641C207.064 35.9902 205.882 35.9941 204.7 35.9732C205.857 33.802 207.427 31.0387 208.958 29.1582C208.775 29.0695 208.595 28.9756 208.418 28.8791C207.083 28.1423 206.062 26.9569 205.67 25.4703C205.264 23.9206 205.485 22.1517 206.315 20.7757C207.432 18.9192 209.182 18.2055 211.185 17.7333ZM214.391 27.0808C215.314 27.073 216.256 27.1017 217.176 27.0352C217.164 24.8744 217.17 22.7135 217.193 20.5527C215.36 20.546 213.501 20.4969 211.67 20.5973C210.515 20.9592 209.613 21.3496 208.989 22.4631C208.576 23.2032 208.465 24.1798 208.744 24.9839C209.014 25.7624 209.639 26.3088 210.374 26.6414C211.616 27.2021 213.061 27.0926 214.391 27.0808Z" fill="white"/>
<path d="M135.493 17.9011C139.452 17.7583 143.445 17.8509 147.408 17.8436L147.39 35.9749C146.403 35.9606 145.412 35.9189 144.432 36.0532L144.418 20.6946L142.738 20.7623C141.239 20.6883 139.706 20.787 138.204 20.8222C138.162 24.477 138.148 32.0536 135.588 34.7582C134.312 36.1066 132.869 36.2449 131.126 36.2592C131.113 35.3059 131.062 34.3644 130.993 33.4138C131.448 33.372 131.93 33.3407 132.374 33.2286C135.129 32.5335 135.177 23.4284 135.247 21.1327C135.274 20.238 135.076 18.6295 135.493 17.9011Z" fill="white"/>
<path d="M199.708 17.767L200.113 17.7432C200.161 17.809 200.231 17.8639 200.261 17.9407C200.396 18.2974 200.257 34.1361 200.258 35.967L197.603 35.9853L197.407 35.9462C196.982 35.1781 197.409 20.0847 197.276 17.8032C198.087 17.8132 198.898 17.7859 199.708 17.767Z" fill="white"/>
<path d="M197.22 10.9291L200.274 10.9199C200.242 12.0037 200.267 13.0885 200.282 14.1724L197.138 14.1961C197.184 13.1076 197.211 12.0185 197.22 10.9291Z" fill="white"/>
</g>
<defs>
<clipPath id="clip0_16218_291">
<rect width="220.338" height="48.771" fill="white"/>
</clipPath>
</defs>
</svg>
